<?xml version="1.0" encoding="UTF-8"?>
<svg version="1.1" xmlns="http://www.w3.org/2000/svg" width="1024" height="1024">
<path d="M0 0 C2.36718907 2.04733401 4.6933047 4.13484013 7 6.25 C7.52762939 6.73291504 8.05525879 7.21583008 8.59887695 7.71337891 C12.03771977 10.92942036 15.12872727 14.263123 18 18 C18 18.66 18 19.32 18 20 C18.66 20 19.32 20 20 20 C21.78705611 22.29720717 23.43850613 24.59030084 25.0625 27 C25.55202148 27.72405029 26.04154297 28.44810059 26.54589844 29.1940918 C47.54166083 60.65707967 53.39546147 92.79232145 53.16015625 130.1484375 C53.15386928 132.42241152 53.14863473 134.69638867 53.14439392 136.97036743 C53.13122091 142.89686312 53.10683311 148.82325162 53.07904053 154.74969482 C53.03554931 164.28197563 53.00620396 173.8142883 52.9829998 183.34663773 C52.97279448 186.66597603 52.95575801 189.98522951 52.93800354 193.30453491 C52.93117909 195.3285108 52.92457028 197.35248743 52.91821289 199.37646484 C52.91147552 200.296931 52.90473816 201.21739716 52.89779663 202.16575623 C52.89628098 203.01189987 52.89476532 203.85804352 52.89320374 204.72982788 C52.88968431 205.46231939 52.88616488 206.19481091 52.8825388 206.94949913 C53.00442169 209.07718871 53.41766215 210.95417312 54 213 C54.969375 213.20753906 55.93875 213.41507813 56.9375 213.62890625 C78.55938987 218.49791621 95.27841132 228.42315683 111 244 C111.6909375 244.67804688 112.381875 245.35609375 113.09375 246.0546875 C126.51220254 260.2660486 135 282.56069627 135 302 C135.6705542 301.98428955 136.3411084 301.9685791 137.03198242 301.95239258 C140.0837351 301.88985342 143.13535268 301.85094937 146.1875 301.8125 C147.77014648 301.77479492 147.77014648 301.77479492 149.38476562 301.73632812 C150.40634766 301.72666016 151.42792969 301.71699219 152.48046875 301.70703125 C153.41785889 301.6913208 154.35524902 301.67561035 155.32104492 301.65942383 C159.6286436 302.20704983 162.23341674 304.23341674 165.25 307.25 C167.42337417 310.66530227 167.929062 312.95653401 168 317 C166.43631089 321.19727077 164.42104755 324.11349113 161 327 C157.11624284 328.29458572 153.44439883 328.13103781 149.39770508 328.11352539 C148.51944565 328.11367142 147.64118622 328.11381744 146.73631287 328.1139679 C143.83069395 328.11327072 140.92513898 328.10548739 138.01953125 328.09765625 C136.00599706 328.09579138 133.99246242 328.0943678 131.97892761 328.09336853 C126.67708078 328.08954879 121.37526131 328.07972312 116.07342529 328.06866455 C110.66418833 328.05843877 105.25494696 328.0538684 99.84570312 328.04882812 C89.23045673 328.03810039 78.61523064 328.02103046 68 328 C68.31710937 328.64324219 68.63421875 329.28648437 68.9609375 329.94921875 C70.31438298 333.92305679 70.45720161 337.64201079 70.625 341.8125 C70.66367187 342.60076172 70.70234375 343.38902344 70.7421875 344.20117188 C70.83588844 346.1337538 70.91900779 348.06684376 71 350 C71.59745592 350.00238835 72.19491184 350.00477671 72.81047249 350.00723743 C87.35837384 350.06641364 101.90612646 350.14198049 116.45384407 350.23571491 C123.4890709 350.28065068 130.52424736 350.32007038 137.55957031 350.34643555 C144.34831857 350.37189224 151.13683326 350.41281189 157.92544174 350.46318626 C160.51616503 350.47987852 163.10692713 350.49137806 165.69769669 350.49761391 C169.32490834 350.50722897 172.95154325 350.53525882 176.57861328 350.56762695 C177.65107803 350.56619186 178.72354279 350.56475677 179.82850647 350.5632782 C186.62162472 350.6490773 191.31403974 351.31403974 196.3125 356.3125 C198.6190082 359.98582787 199.4237823 362.69373213 198.62890625 367.01953125 C197.24659686 371.64726268 195.67619423 373.73626101 191.29482841 376.14512634 C186.46538086 377.94420093 181.30276727 377.53053034 176.21508789 377.48242188 C174.25696714 377.4884276 172.2988464 377.49443437 170.34072578 377.50048065 C168.24657914 377.5031019 166.15267212 377.49589357 164.05854988 377.4858551 C159.68282098 377.46543731 155.30748037 377.47553068 150.93174744 377.4901123 C140.85311028 377.51908678 130.77458898 377.50842835 120.69593048 377.49741364 C111.45732926 377.48772529 102.21893221 377.48652114 92.98036569 377.51729441 C88.63618475 377.53062437 84.29259182 377.52477109 79.94844639 377.50392914 C77.8939475 377.49708691 75.83969947 377.49938643 73.78520203 377.50572205 C71.28830008 377.51336975 68.79129629 377.50694108 66.29449463 377.48329163 C58.60592911 377.53954169 52.67779581 378.32220419 47 384 C45.71451287 389.61443304 45.71451287 389.61443304 47.4375 394.875 C47.953125 395.57625 48.46875 396.2775 49 397 C49 397.66 49 398.32 49 399 C50.15622864 399.00808685 51.31245728 399.01617371 52.50372314 399.02450562 C63.39252317 399.10194242 74.28119786 399.18967554 85.16983414 399.28752708 C90.76798264 399.33750331 96.36611214 399.38383334 101.96435547 399.421875 C107.36552299 399.45871089 112.76653211 399.50506641 118.16756439 399.55806351 C120.22963435 399.57661644 122.29173828 399.59172107 124.35385895 399.60334396 C127.23900116 399.62019087 130.12377989 399.64922241 133.00878906 399.68115234 C134.29164543 399.68439262 134.29164543 399.68439262 135.60041809 399.68769836 C136.38843307 399.69886185 137.17644806 399.71002533 137.98834229 399.7215271 C138.67046909 399.72705786 139.3525959 399.73258862 140.05539322 399.73828697 C142.35185625 400.04735423 143.99124863 400.87165025 146 402 C146 402.66 146 403.32 146 404 C146.66 404 147.32 404 148 404 C150.87444574 409.19611345 151.3357279 412.24293898 149.734375 417.984375 C148.57065526 421.17841429 147.23468761 423.13611509 144.45542908 425.08070374 C140.73357105 426.47414255 137.01019521 426.28305641 133.08813477 426.27124023 C131.73868271 426.27908035 131.73868271 426.27908035 130.36196899 426.28707886 C128.41022548 426.2973134 126.45845472 426.30309831 124.50668526 426.30496025 C121.41740791 426.3086222 118.32845207 426.32534388 115.23924255 426.34571838 C106.45667494 426.40115008 97.67406009 426.43183089 88.89135742 426.45629883 C83.51797556 426.4721712 78.14482227 426.50238611 72.77155876 426.54106331 C70.7242672 426.5527153 68.67693478 426.55864368 66.62961006 426.55874443 C63.76658375 426.55893643 60.90418815 426.57719877 58.04125977 426.59936523 C57.19590164 426.59478806 56.35054352 426.59021088 55.47956848 426.585495 C49.7818175 426.65564595 46.39223177 427.69025898 42.1875 431.75 C40.47131674 435.00171564 40.61837912 437.37460162 41 441 C42.33608454 444.16441076 43.17077616 445.58840999 46.26153946 447.12252808 C49.2193436 448.07028323 51.52737866 448.2412194 54.62786865 448.22705078 C55.74923218 448.22690979 56.8705957 448.2267688 58.02593994 448.22662354 C59.24682312 448.21629089 60.4677063 448.20595825 61.72558594 448.1953125 C63.71080413 448.19082931 65.69602232 448.18634667 67.68124056 448.18188477 C69.81080216 448.17515148 71.94028522 448.16344582 74.06981659 448.15032959 C78.51693303 448.12322379 82.96400964 448.11148283 87.41119385 448.10205078 C97.65907537 448.07798231 107.9068528 448.03394225 118.15466309 447.98959351 C127.53847744 447.94916865 136.92225591 447.91303242 146.30613923 447.89316368 C150.72016828 447.88323996 155.13401113 447.8635811 159.54796553 447.83630371 C161.63753421 447.8249282 163.72705674 447.81821007 165.81665039 447.8135376 C168.35511109 447.80783593 170.89357082 447.7950028 173.4319458 447.77337646 C188.7542242 447.77146915 188.7542242 447.77146915 194.15625 451.48046875 C197.37684996 455.57175417 199.09651203 458.59532628 199 464 C197.41574474 469.19283668 195.55648317 472.03828594 191 475 C187.96550672 476.01149776 185.90616679 476.13427598 182.73085022 476.15148926 C181.63866684 476.15983292 180.54648346 476.16817657 179.42120361 476.17677307 C178.22267761 476.18095749 177.02415161 476.18514191 175.78930664 476.18945312 C173.85217692 476.20218331 171.91504721 476.21491375 169.97791755 476.2276535 C167.89515075 476.24039996 165.81238429 476.25072092 163.72960091 476.26036072 C159.38898526 476.280585 155.04843654 476.30823736 150.70787048 476.33703613 C141.49277836 476.39712571 132.27764604 476.44896503 123.0625 476.5 C113.11784722 476.55509011 103.17321475 476.61159715 93.22862715 476.67754889 C88.91366339 476.70588407 84.59870739 476.72948529 80.28369725 476.74947357 C78.24563954 476.75964394 76.20760985 476.77202989 74.16957092 476.78541565 C71.68451048 476.80172402 69.19942371 476.81453602 66.71432495 476.82322693 C65.61932175 476.83157059 64.52431854 476.83991425 63.39613342 476.84851074 C62.44505235 476.85366447 61.49397127 476.85881821 60.51406956 476.86412811 C58.16915965 476.99085783 56.2128081 477.21935169 54 478 C51.50978911 481.79460708 51.91434715 485.47751971 52.22265625 489.81640625 C53.40380798 493.13431489 55.01964088 494.13682165 58 496 C61.09137571 496.57668422 64.13167272 496.53348045 67.26904297 496.49829102 C68.19487183 496.50380981 69.12070068 496.50932861 70.07458496 496.51501465 C72.0808691 496.52432617 74.08721235 496.52444684 76.09350204 496.51642036 C79.27179193 496.50378859 82.44921357 496.51508271 85.62747192 496.53245544 C91.2307852 496.55916784 96.8338858 496.56475085 102.43725586 496.56335449 C111.39865255 496.56112703 120.3597855 496.57529092 129.32107925 496.61894035 C132.44701285 496.62876428 135.57253087 496.62006783 138.69845581 496.61024475 C140.62302928 496.61639104 142.5476005 496.62330347 144.47216797 496.63110352 C145.33681671 496.62338425 146.20146545 496.61566498 147.09231567 496.60771179 C153.83434134 496.66394702 158.41118561 498.03024992 163.875 502.1875 C166.588483 505.77887456 167.28965565 508.53228104 167 513 C165.30183631 518.19438305 162.81194661 520.50148926 158 523 C152.33872051 524.10498991 146.80195283 524.11923984 141.0625 524.0625 C140.18787109 524.05798828 139.31324219 524.05347656 138.41210938 524.04882812 C136.27470953 524.03714834 134.13734537 524.01921689 132 524 C131.50371094 525.17175781 131.00742187 526.34351563 130.49609375 527.55078125 C124.71806648 541.00035452 118.19308803 553.26715579 108 564 C107.34 564 106.68 564 106 564 C105.34 565.32 104.68 566.64 104 568 C103.34 568 102.68 568 102 568 C102 568.66 102 569.32 102 570 C100.01493486 571.71342465 98.02995851 573.30279131 95.9375 574.875 C95.37611328 575.30941406 94.81472656 575.74382813 94.23632812 576.19140625 C74.66862108 591.0852267 50.55504918 596.1609825 26.44091797 596.14044189 C24.77471389 596.14489858 24.77471389 596.14489858 23.07484913 596.1494453 C19.38062078 596.15806473 15.68642508 596.15963478 11.9921875 596.16113281 C9.33177034 596.16576578 6.67135603 596.17077127 4.01094055 596.17617798 C-3.19812991 596.1896975 -10.40719476 596.19577596 -17.61627579 596.20018864 C-22.12735358 596.2029618 -26.63842926 596.20720104 -31.14950562 596.21169281 C-43.66745366 596.22387695 -56.18540004 596.23417806 -68.70335388 596.2375679 C-69.90259167 596.23789725 -69.90259167 596.23789725 -71.12605649 596.23823325 C-71.92733447 596.23845153 -72.72861244 596.23866981 -73.55417156 596.2388947 C-75.17755318 596.23933815 -76.80093479 596.23978471 -78.42431641 596.24023438 C-79.22954982 596.2404558 -80.03478324 596.24067723 -80.86441767 596.24090537 C-93.89712563 596.24484913 -106.92977753 596.2622941 -119.96246386 596.2855939 C-133.37954329 596.30938505 -146.79659468 596.32177326 -160.21369553 596.32293582 C-167.73211476 596.32384821 -175.25046092 596.3294897 -182.76885986 596.34775543 C-189.17342406 596.36326166 -195.57789257 596.36821555 -201.982472 596.36001733 C-205.24161307 596.35614767 -208.50052463 596.35853623 -211.75964928 596.37107468 C-246.36802253 596.49631649 -276.66878437 590.34268194 -302.25 565.3125 C-316.63944512 550.7280382 -325.67405551 532.93412612 -330 513 C-330.22558594 512.01386719 -330.45117188 511.02773438 -330.68359375 510.01171875 C-332.12231539 502.52044403 -332.09090848 495.16481237 -332.046875 487.55859375 C-332.04349121 486.44577026 -332.04010742 485.33294678 -332.03662109 484.18640137 C-332.02783494 481.45756914 -332.01553182 478.72880077 -332 476 C-332.63369507 476.00888245 -333.26739014 476.01776489 -333.92028809 476.0269165 C-340.53921452 476.1156806 -347.15797077 476.17585479 -353.77734375 476.21972656 C-356.24486158 476.23979295 -358.71233215 476.26705244 -361.1796875 476.30175781 C-364.73449393 476.35049306 -368.28866944 476.37301939 -371.84375 476.390625 C-373.48796936 476.42159271 -373.48796936 476.42159271 -375.16540527 476.45318604 C-381.91896788 476.45514708 -386.25834029 475.63482758 -392 472 C-394.48942705 468.86814017 -395.71474059 465.9936317 -396 462 C-395.29701245 457.62585526 -394.35884052 454.96646411 -391 452.125 C-387.14317154 449.39307984 -385.4640533 448.87034505 -380.81591797 448.79467773 C-379.73494843 448.77473251 -378.65397888 448.75478729 -377.54025269 448.73423767 C-376.36939117 448.71752518 -375.19852966 448.70081268 -373.9921875 448.68359375 C-372.79643097 448.66281265 -371.60067444 448.64203156 -370.36868286 448.62062073 C-366.53751536 448.55507711 -362.70627762 448.49621782 -358.875 448.4375 C-356.28254473 448.39431937 -353.69009664 448.35070523 -351.09765625 448.30664062 C-344.73184337 448.19939077 -338.36595963 448.09813688 -332 448 C-332 440.74 -332 433.48 -332 426 C-335.3 426 -338.6 426 -342 426 C-346.40830916 423.83592096 -349.12843553 421.57493538 -351 417 C-351.58075783 413.03148815 -351.40913488 409.94747025 -349.8125 406.25 C-346.92853046 402.66989989 -344.94429678 400.32907703 -340.23046875 399.53125 C-337.49293798 399.27823047 -334.7460117 399.13233791 -332 399 C-332 391.74 -332 384.48 -332 377 C-333.60439941 377.01571045 -335.20879883 377.0314209 -336.86181641 377.04760742 C-342.82172615 377.10196109 -348.78161403 377.13637025 -354.74169922 377.16479492 C-357.31986171 377.17986905 -359.89799862 377.20033167 -362.47607422 377.22631836 C-366.18463461 377.26276086 -369.89285554 377.27974052 -373.6015625 377.29296875 C-374.75177887 377.30845261 -375.90199524 377.32393646 -377.08706665 377.33988953 C-387.18288377 377.3420064 -387.18288377 377.3420064 -392 374 C-395.00501534 370.26963613 -395.83306461 366.7576585 -396 362 C-394.11032215 356.64591276 -391.05935077 353.52967539 -386 351 C-384.27393547 350.90938144 -382.54435493 350.88245499 -380.81591797 350.88647461 C-379.73494843 350.88655014 -378.65397888 350.88662567 -377.54025269 350.88670349 C-375.78396042 350.89444542 -375.78396042 350.89444542 -373.9921875 350.90234375 C-372.79643097 350.9037587 -371.60067444 350.90517365 -370.36868286 350.90663147 C-366.53743013 350.91224337 -362.70623516 350.92479792 -358.875 350.9375 C-356.28255293 350.94251347 -353.69010494 350.94707664 -351.09765625 350.95117188 C-344.73174847 350.96221667 -338.36588404 350.97948932 -332 351 C-332 343.41 -332 335.82 -332 328 C-333.79566406 328.06960938 -335.59132813 328.13921875 -337.44140625 328.2109375 C-339.81506665 328.26722984 -342.18876764 328.3218284 -344.5625 328.375 C-345.74392578 328.42527344 -346.92535156 328.47554687 -348.14257812 328.52734375 C-358.00569422 328.69311041 -358.00569422 328.69311041 -362.27734375 325.1015625 C-366.09066526 321.1889698 -366.45295789 317.97898666 -366.421875 312.6171875 C-365.73288992 308.34292823 -363.33018946 305.6495668 -360 303 C-356.82212459 301.9407082 -354.57411057 301.88541061 -351.23828125 301.90234375 C-350.12001953 301.90556641 -349.00175781 301.90878906 -347.84960938 301.91210938 C-346.68236328 301.92048828 -345.51511719 301.92886719 -344.3125 301.9375 C-343.13365234 301.94201172 -341.95480469 301.94652344 -340.74023438 301.95117188 C-337.82677211 301.96296727 -334.91341137 301.9794273 -332 302 C-331.87753906 300.70191406 -331.75507813 299.40382813 -331.62890625 298.06640625 C-329.32871139 277.5886715 -321.01195242 260.68958209 -308 245 C-307.37609375 244.16597656 -306.7521875 243.33195312 -306.109375 242.47265625 C-303.51402946 239.43033453 -300.65318304 237.06691276 -297.5 234.625 C-296.8805249 234.14458252 -296.2610498 233.66416504 -295.62280273 233.16918945 C-282.64851094 223.27950856 -265.75431139 213.76501667 -249 214 C-249.00276538 213.45429069 -249.00553076 212.90858137 -249.00837994 212.34633541 C-249.07517601 198.95259858 -249.12434485 185.55889165 -249.15543652 172.16502285 C-249.17098562 165.68734394 -249.1920235 159.20978667 -249.22631836 152.73217773 C-249.25930025 146.46217239 -249.27693348 140.19228285 -249.28463173 133.92219734 C-249.29010646 131.54922733 -249.3007932 129.17626249 -249.31719017 126.80334282 C-249.4464771 107.28853407 -249.12785215 87.15439669 -242.3125 68.625 C-241.96292236 67.63371094 -241.61334473 66.64242187 -241.25317383 65.62109375 C-230.8431492 36.75958632 -213.35542321 12.8523757 -189 -6 C-187.92105469 -6.85658203 -187.92105469 -6.85658203 -186.8203125 -7.73046875 C-167.40180814 -22.27707077 -143.01387906 -32.03199248 -119 -35 C-118.30116699 -35.0913623 -117.60233398 -35.18272461 -116.88232422 -35.27685547 C-74.92873632 -40.44845793 -32.29671983 -26.9708532 0 0 Z M-153 28 C-153.93328125 28.59425781 -154.8665625 29.18851563 -155.828125 29.80078125 C-172.15895573 40.95063205 -184.09311117 56.00039242 -192.375 73.8125 C-192.6848584 74.46186523 -192.9947168 75.11123047 -193.31396484 75.78027344 C-200.54853346 92.32880763 -200.55063932 109.53830738 -200.390625 127.2578125 C-200.38472729 129.46345615 -200.38065682 131.66910546 -200.37841797 133.87475586 C-200.35763848 141.9582572 -200.30179439 150.04163788 -200.25 158.125 C-200.1675 176.23375 -200.085 194.3425 -200 213 C-132.68 213 -65.36 213 4 213 C4.0825 195.05625 4.165 177.1125 4.25 158.625 C4.28641602 152.9938916 4.32283203 147.3627832 4.36035156 141.56103516 C4.37374289 136.43999203 4.37374289 136.43999203 4.3817749 131.31893921 C4.38785078 129.0671979 4.40177818 126.81546823 4.42230225 124.56381226 C4.67817656 94.97017223 -1.46894167 67.48197405 -22.48901367 45.50268555 C-23.97875612 43.98700172 -25.48479518 42.49018964 -27 41 C-27.8353125 40.16597656 -28.670625 39.33195312 -29.53125 38.47265625 C-48.64401916 20.32173099 -75.4547568 11.37530153 -101.546875 11.78515625 C-120.17734333 12.4481769 -137.33786622 18.01445299 -153 28 Z " fill="#AEFBDB" transform="translate(610,232)"/>
<path d="M0 0 C2.36718907 2.04733401 4.6933047 4.13484013 7 6.25 C7.52762939 6.73291504 8.05525879 7.21583008 8.59887695 7.71337891 C12.03771977 10.92942036 15.12872727 14.263123 18 18 C18 18.66 18 19.32 18 20 C18.66 20 19.32 20 20 20 C21.78705611 22.29720717 23.43850613 24.59030084 25.0625 27 C25.55202148 27.72405029 26.04154297 28.44810059 26.54589844 29.1940918 C47.54166083 60.65707967 53.39546147 92.79232145 53.16015625 130.1484375 C53.15386928 132.42241152 53.14863473 134.69638867 53.14439392 136.97036743 C53.13122091 142.89686312 53.10683311 148.82325162 53.07904053 154.74969482 C53.03554931 164.28197563 53.00620396 173.8142883 52.9829998 183.34663773 C52.97279448 186.66597603 52.95575801 189.98522951 52.93800354 193.30453491 C52.93117909 195.3285108 52.92457028 197.35248743 52.91821289 199.37646484 C52.91147552 200.296931 52.90473816 201.21739716 52.89779663 202.16575623 C52.89628098 203.01189987 52.89476532 203.85804352 52.89320374 204.72982788 C52.88968431 205.46231939 52.88616488 206.19481091 52.8825388 206.94949913 C53.00442169 209.07718871 53.41766215 210.95417312 54 213 C54.969375 213.20753906 55.93875 213.41507813 56.9375 213.62890625 C78.55938987 218.49791621 95.27841132 228.42315683 111 244 C111.6909375 244.67804688 112.381875 245.35609375 113.09375 246.0546875 C126.51220254 260.2660486 135 282.56069627 135 302 C135.6705542 301.98428955 136.3411084 301.9685791 137.03198242 301.95239258 C140.0837351 301.88985342 143.13535268 301.85094937 146.1875 301.8125 C147.77014648 301.77479492 147.77014648 301.77479492 149.38476562 301.73632812 C150.40634766 301.72666016 151.42792969 301.71699219 152.48046875 301.70703125 C153.41785889 301.6913208 154.35524902 301.67561035 155.32104492 301.65942383 C159.6286436 302.20704983 162.23341674 304.23341674 165.25 307.25 C167.42337417 310.66530227 167.929062 312.95653401 168 317 C166.43631089 321.19727077 164.42104755 324.11349113 161 327 C157.79165377 328.06944874 155.4792289 328.13372455 152.10565186 328.14717102 C150.87476334 328.15432632 149.64387482 328.16148163 148.37568665 328.16885376 C147.00924708 328.17169398 145.64280724 328.17440572 144.27636719 328.17700195 C142.83902319 328.18326765 141.40168082 328.18991455 139.96434021 328.19691467 C135.24186326 328.21794533 130.51938602 328.22831632 125.796875 328.23828125 C124.1703108 328.24232922 122.54374677 328.24644615 120.91718292 328.25063133 C113.2749563 328.26968105 105.63273933 328.28391237 97.99049354 328.2922433 C89.17298131 328.30201445 80.35572021 328.32833154 71.53829646 328.36874419 C64.72034644 328.39891882 57.90246836 328.41371346 51.08445287 328.41702431 C47.01359365 328.41937334 42.94300277 328.42831423 38.87221527 328.45348549 C35.04064149 328.47679491 31.20951218 328.48098816 27.37788582 328.47072411 C25.97465853 328.47022932 24.57140916 328.47653296 23.16824913 328.49028015 C9.97724621 328.61224462 9.97724621 328.61224462 4 324 C0.80966177 320.39800523 0.42258774 316.88486774 0.578125 312.21875 C1.31329662 308.35229187 3.139978 306.6650205 6 304 C9.65284154 301.53179809 13.3605536 301.73016952 17.61425781 301.77294922 C18.37562042 301.77265717 19.13698303 301.77236511 19.92141724 301.77206421 C22.43210336 301.77345494 24.94249086 301.78900396 27.453125 301.8046875 C29.19618569 301.80841854 30.93924848 301.81126509 32.68231201 301.81326294 C37.26576548 301.8208922 41.84909181 301.84053463 46.43249512 301.8626709 C51.11122925 301.88314454 55.78998396 301.89226791 60.46875 301.90234375 C69.64588913 301.92378118 78.82293399 301.95790862 88 302 C87.36882935 300.06631004 86.73421892 298.13374261 86.09814453 296.20166016 C85.74511261 295.12534332 85.39208069 294.04902649 85.02835083 292.94009399 C80.58495639 280.2362609 70.07138925 269.73412405 58.29877281 263.58300114 C44.01604143 256.72906444 29.68207996 257.43648553 14.17333984 257.49829102 C11.46170446 257.49671096 8.75009281 257.4891511 6.03846741 257.48191833 C-0.53437166 257.46805596 -7.10701732 257.47548942 -13.67984702 257.49059392 C-21.34745792 257.50753724 -29.01502175 257.50423339 -36.6826456 257.50049984 C-50.36984947 257.49463429 -64.05696107 257.50874245 -77.74414062 257.53344727 C-91.00166277 257.55737359 -104.2590617 257.56444618 -117.51660156 257.55395508 C-131.98381827 257.54252709 -146.45097813 257.54063828 -160.91819417 257.55505317 C-162.46286161 257.55657888 -164.00752905 257.55809924 -165.5521965 257.55961418 C-166.31203667 257.560372 -167.07187684 257.56112981 -167.85474247 257.56191059 C-173.18979775 257.56663816 -178.52482749 257.56481293 -183.85988235 257.56054878 C-190.36670256 257.55560508 -196.87340667 257.56168228 -203.3802004 257.58144308 C-206.69521765 257.59126513 -210.00991265 257.59484943 -213.32496071 257.58855057 C-216.92854772 257.58256366 -220.53162145 257.59516866 -224.13516235 257.61231995 C-225.16845126 257.6063099 -226.20174016 257.60029986 -227.26634085 257.59410769 C-244.76339149 257.74477101 -258.78727477 264.6535588 -271 277 C-271.84304688 277.79277344 -271.84304688 277.79277344 -272.703125 278.6015625 C-286.28432021 292.54015759 -288.62237785 314.74031323 -288.51757812 333.18969727 C-288.52301735 334.83125422 -288.53014996 336.47280628 -288.53881836 338.11434937 C-288.5568397 342.51729414 -288.55007365 346.91985825 -288.53730202 351.3228085 C-288.52706472 355.96374499 -288.53659694 360.60465223 -288.54284668 365.24559021 C-288.5500915 373.03317016 -288.54061835 380.82059759 -288.52148438 388.6081543 C-288.4997141 397.57137442 -288.50678096 406.53423049 -288.52879 415.49744183 C-288.54702567 423.23812937 -288.54946289 430.97870825 -288.53903532 438.71941036 C-288.53284599 443.32294001 -288.53183753 447.92629934 -288.54518127 452.52981758 C-288.55685934 456.85985599 -288.54849959 461.18943147 -288.52560425 465.51942062 C-288.52038055 467.09462534 -288.52171991 468.66987002 -288.53065491 470.24505806 C-288.63197742 489.94572672 -283.58842273 508.81796826 -272 525 C-271.55140625 525.63421875 -271.1028125 526.2684375 -270.640625 526.921875 C-259.93462007 540.65075191 -243.27307554 547.37074077 -226.51043034 549.72952318 C-217.29535991 550.72236608 -207.94465625 550.41338868 -198.69042969 550.38818359 C-196.16569798 550.39225568 -193.64096805 550.39760111 -191.11624146 550.40411377 C-185.00758641 550.4163071 -178.89907675 550.4146147 -172.79042003 550.40587585 C-167.82236035 550.39906622 -162.85433163 550.39819664 -157.88626862 550.4014473 C-157.17585793 550.401907 -156.46544724 550.40236669 -155.73350896 550.40284032 C-154.28981627 550.40379961 -152.84612359 550.40477225 -151.40243092 550.4057581 C-137.90876213 550.41428483 -124.41515478 550.40451943 -110.92149606 550.388357 C-99.36625316 550.37494466 -87.81110067 550.37729472 -76.25585938 550.39111328 C-62.80017081 550.40719725 -49.34453584 550.41347328 -35.88883901 550.40427649 C-34.45204879 550.40332094 -33.01525856 550.40237783 -31.57846832 550.4014473 C-30.87173622 550.40098447 -30.16500412 550.40052164 -29.4368559 550.40004479 C-24.47797893 550.39746421 -19.51913624 550.40180545 -14.56026459 550.40888596 C-7.8788319 550.41821748 -1.1975955 550.41149773 5.4838295 550.39420319 C7.92988681 550.39024949 10.37595854 550.39135315 12.82201004 550.39799118 C16.17150899 550.40624048 19.52046907 550.39584413 22.86993408 550.38095093 C23.82793073 550.38764309 24.78592738 550.39433526 25.77295423 550.40123022 C44.47508271 550.24093151 63.51097387 541.64986918 76.8125 528.5625 C78.56510021 526.71274071 79.8623927 525.27521459 81 523 C80.12383026 523.00888245 79.24766052 523.01776489 78.34494019 523.0269165 C70.07639033 523.10715922 61.80797178 523.16801356 53.53912163 523.20724869 C49.28828151 523.22809828 45.0377639 523.25636734 40.78710938 523.30175781 C36.68276945 523.34531017 32.57873917 523.36915688 28.47418594 523.37950897 C26.91050468 523.38688357 25.34683983 523.40128466 23.78329086 523.42292023 C21.58806874 523.45208062 19.39411599 523.45595097 17.19873047 523.45410156 C15.95074677 523.46298401 14.70276306 523.47186646 13.41696167 523.48101807 C8.44404154 522.78096209 5.30931795 520.57118154 2.125 516.75 C0.63047075 513.09670628 0.18746596 509.84448976 1 506 C3.10313035 502.20268132 5.94846323 499.56538916 10 498 C12.78680229 497.74273109 12.78680229 497.74273109 16.05929565 497.73257446 C17.30141815 497.72404449 18.54354065 497.71551453 19.82330322 497.70672607 C21.19714368 497.70742508 22.57098404 497.70834813 23.94482422 497.70947266 C25.39379218 497.70348733 26.84275695 497.69668177 28.29171753 497.68911743 C32.22565942 497.67145066 36.15951431 497.66676177 40.09349203 497.66548586 C42.55194217 497.66406409 45.0103702 497.65979401 47.46881485 497.65449142 C56.0474208 497.63598895 64.6259646 497.62782109 73.20458984 497.62939453 C81.19808662 497.63059601 89.1913134 497.60949304 97.18474185 497.5779072 C104.05026515 497.5517461 110.91570025 497.54102716 117.78127301 497.54230535 C121.88057326 497.54281503 125.97963357 497.53712853 130.07888412 497.51594925 C133.93511143 497.49656946 137.79086985 497.49644025 141.6471138 497.51098251 C143.06042924 497.51307206 144.473774 497.50836089 145.88703918 497.4962616 C159.26902582 497.38913773 159.26902582 497.38913773 164 502 C166.2286913 505.81034318 167.01367284 508.20697538 166.9375 512.625 C165.87473055 516.45097003 164.87907834 518.2724521 162 521 C155.7464813 524.50971373 150.11813616 524.35830683 143.0625 524.1875 C141.99708984 524.17396484 140.93167969 524.16042969 139.83398438 524.14648438 C137.22212412 524.11134724 134.61133366 524.06215184 132 524 C131.50371094 525.17175781 131.00742187 526.34351563 130.49609375 527.55078125 C124.71806648 541.00035452 118.19308803 553.26715579 108 564 C107.34 564 106.68 564 106 564 C105.34 565.32 104.68 566.64 104 568 C103.34 568 102.68 568 102 568 C102 568.66 102 569.32 102 570 C100.01493486 571.71342465 98.02995851 573.30279131 95.9375 574.875 C95.37611328 575.30941406 94.81472656 575.74382813 94.23632812 576.19140625 C74.66862108 591.0852267 50.55504918 596.1609825 26.44091797 596.14044189 C24.77471389 596.14489858 24.77471389 596.14489858 23.07484913 596.1494453 C19.38062078 596.15806473 15.68642508 596.15963478 11.9921875 596.16113281 C9.33177034 596.16576578 6.67135603 596.17077127 4.01094055 596.17617798 C-3.19812991 596.1896975 -10.40719476 596.19577596 -17.61627579 596.20018864 C-22.12735358 596.2029618 -26.63842926 596.20720104 -31.14950562 596.21169281 C-43.66745366 596.22387695 -56.18540004 596.23417806 -68.70335388 596.2375679 C-69.90259167 596.23789725 -69.90259167 596.23789725 -71.12605649 596.23823325 C-71.92733447 596.23845153 -72.72861244 596.23866981 -73.55417156 596.2388947 C-75.17755318 596.23933815 -76.80093479 596.23978471 -78.42431641 596.24023438 C-79.22954982 596.2404558 -80.03478324 596.24067723 -80.86441767 596.24090537 C-93.89712563 596.24484913 -106.92977753 596.2622941 -119.96246386 596.2855939 C-133.37954329 596.30938505 -146.79659468 596.32177326 -160.21369553 596.32293582 C-167.73211476 596.32384821 -175.25046092 596.3294897 -182.76885986 596.34775543 C-189.17342406 596.36326166 -195.57789257 596.36821555 -201.982472 596.36001733 C-205.24161307 596.35614767 -208.50052463 596.35853623 -211.75964928 596.37107468 C-246.36802253 596.49631649 -276.66878437 590.34268194 -302.25 565.3125 C-316.63944512 550.7280382 -325.67405551 532.93412612 -330 513 C-330.22558594 512.01386719 -330.45117188 511.02773438 -330.68359375 510.01171875 C-332.12231539 502.52044403 -332.09090848 495.16481237 -332.046875 487.55859375 C-332.04349121 486.44577026 -332.04010742 485.33294678 -332.03662109 484.18640137 C-332.02783494 481.45756914 -332.01553182 478.72880077 -332 476 C-332.63369507 476.00888245 -333.26739014 476.01776489 -333.92028809 476.0269165 C-340.53921452 476.1156806 -347.15797077 476.17585479 -353.77734375 476.21972656 C-356.24486158 476.23979295 -358.71233215 476.26705244 -361.1796875 476.30175781 C-364.73449393 476.35049306 -368.28866944 476.37301939 -371.84375 476.390625 C-373.48796936 476.42159271 -373.48796936 476.42159271 -375.16540527 476.45318604 C-381.91896788 476.45514708 -386.25834029 475.63482758 -392 472 C-394.48942705 468.86814017 -395.71474059 465.9936317 -396 462 C-395.29701245 457.62585526 -394.35884052 454.96646411 -391 452.125 C-387.14317154 449.39307984 -385.4640533 448.87034505 -380.81591797 448.79467773 C-379.73494843 448.77473251 -378.65397888 448.75478729 -377.54025269 448.73423767 C-376.36939117 448.71752518 -375.19852966 448.70081268 -373.9921875 448.68359375 C-372.79643097 448.66281265 -371.60067444 448.64203156 -370.36868286 448.62062073 C-366.53751536 448.55507711 -362.70627762 448.49621782 -358.875 448.4375 C-356.28254473 448.39431937 -353.69009664 448.35070523 -351.09765625 448.30664062 C-344.73184337 448.19939077 -338.36595963 448.09813688 -332 448 C-332 440.74 -332 433.48 -332 426 C-335.3 426 -338.6 426 -342 426 C-346.40830916 423.83592096 -349.12843553 421.57493538 -351 417 C-351.58075783 413.03148815 -351.40913488 409.94747025 -349.8125 406.25 C-346.92853046 402.66989989 -344.94429678 400.32907703 -340.23046875 399.53125 C-337.49293798 399.27823047 -334.7460117 399.13233791 -332 399 C-332 391.74 -332 384.48 -332 377 C-333.60439941 377.01571045 -335.20879883 377.0314209 -336.86181641 377.04760742 C-342.82172615 377.10196109 -348.78161403 377.13637025 -354.74169922 377.16479492 C-357.31986171 377.17986905 -359.89799862 377.20033167 -362.47607422 377.22631836 C-366.18463461 377.26276086 -369.89285554 377.27974052 -373.6015625 377.29296875 C-374.75177887 377.30845261 -375.90199524 377.32393646 -377.08706665 377.33988953 C-387.18288377 377.3420064 -387.18288377 377.3420064 -392 374 C-395.00501534 370.26963613 -395.83306461 366.7576585 -396 362 C-394.11032215 356.64591276 -391.05935077 353.52967539 -386 351 C-384.27393547 350.90938144 -382.54435493 350.88245499 -380.81591797 350.88647461 C-379.73494843 350.88655014 -378.65397888 350.88662567 -377.54025269 350.88670349 C-375.78396042 350.89444542 -375.78396042 350.89444542 -373.9921875 350.90234375 C-372.79643097 350.9037587 -371.60067444 350.90517365 -370.36868286 350.90663147 C-366.53743013 350.91224337 -362.70623516 350.92479792 -358.875 350.9375 C-356.28255293 350.94251347 -353.69010494 350.94707664 -351.09765625 350.95117188 C-344.73174847 350.96221667 -338.36588404 350.97948932 -332 351 C-332 343.41 -332 335.82 -332 328 C-333.79566406 328.06960938 -335.59132813 328.13921875 -337.44140625 328.2109375 C-339.81506665 328.26722984 -342.18876764 328.3218284 -344.5625 328.375 C-345.74392578 328.42527344 -346.92535156 328.47554687 -348.14257812 328.52734375 C-358.00569422 328.69311041 -358.00569422 328.69311041 -362.27734375 325.1015625 C-366.09066526 321.1889698 -366.45295789 317.97898666 -366.421875 312.6171875 C-365.73288992 308.34292823 -363.33018946 305.6495668 -360 303 C-356.82212459 301.9407082 -354.57411057 301.88541061 -351.23828125 301.90234375 C-350.12001953 301.90556641 -349.00175781 301.90878906 -347.84960938 301.91210938 C-346.68236328 301.92048828 -345.51511719 301.92886719 -344.3125 301.9375 C-343.13365234 301.94201172 -341.95480469 301.94652344 -340.74023438 301.95117188 C-337.82677211 301.96296727 -334.91341137 301.9794273 -332 302 C-331.87753906 300.70191406 -331.75507813 299.40382813 -331.62890625 298.06640625 C-329.32871139 277.5886715 -321.01195242 260.68958209 -308 245 C-307.37609375 244.16597656 -306.7521875 243.33195312 -306.109375 242.47265625 C-303.51402946 239.43033453 -300.65318304 237.06691276 -297.5 234.625 C-296.8805249 234.14458252 -296.2610498 233.66416504 -295.62280273 233.16918945 C-282.64851094 223.27950856 -265.75431139 213.76501667 -249 214 C-249.00276538 213.45429069 -249.00553076 212.90858137 -249.00837994 212.34633541 C-249.07517601 198.95259858 -249.12434485 185.55889165 -249.15543652 172.16502285 C-249.17098562 165.68734394 -249.1920235 159.20978667 -249.22631836 152.73217773 C-249.25930025 146.46217239 -249.27693348 140.19228285 -249.28463173 133.92219734 C-249.29010646 131.54922733 -249.3007932 129.17626249 -249.31719017 126.80334282 C-249.4464771 107.28853407 -249.12785215 87.15439669 -242.3125 68.625 C-241.96292236 67.63371094 -241.61334473 66.64242187 -241.25317383 65.62109375 C-230.8431492 36.75958632 -213.35542321 12.8523757 -189 -6 C-187.92105469 -6.85658203 -187.92105469 -6.85658203 -186.8203125 -7.73046875 C-167.40180814 -22.27707077 -143.01387906 -32.03199248 -119 -35 C-118.30116699 -35.0913623 -117.60233398 -35.18272461 -116.88232422 -35.27685547 C-74.92873632 -40.44845793 -32.29671983 -26.9708532 0 0 Z M-153 28 C-153.93328125 28.59425781 -154.8665625 29.18851563 -155.828125 29.80078125 C-172.15895573 40.95063205 -184.09311117 56.00039242 -192.375 73.8125 C-192.6848584 74.46186523 -192.9947168 75.11123047 -193.31396484 75.78027344 C-200.54853346 92.32880763 -200.55063932 109.53830738 -200.390625 127.2578125 C-200.38472729 129.46345615 -200.38065682 131.66910546 -200.37841797 133.87475586 C-200.35763848 141.9582572 -200.30179439 150.04163788 -200.25 158.125 C-200.1675 176.23375 -200.085 194.3425 -200 213 C-132.68 213 -65.36 213 4 213 C4.0825 195.05625 4.165 177.1125 4.25 158.625 C4.28641602 152.9938916 4.32283203 147.3627832 4.36035156 141.56103516 C4.37374289 136.43999203 4.37374289 136.43999203 4.3817749 131.31893921 C4.38785078 129.0671979 4.40177818 126.81546823 4.42230225 124.56381226 C4.67817656 94.97017223 -1.46894167 67.48197405 -22.48901367 45.50268555 C-23.97875612 43.98700172 -25.48479518 42.49018964 -27 41 C-27.8353125 40.16597656 -28.670625 39.33195312 -29.53125 38.47265625 C-48.64401916 20.32173099 -75.4547568 11.37530153 -101.546875 11.78515625 C-120.17734333 12.4481769 -137.33786622 18.01445299 -153 28 Z " fill="#2A9479" transform="translate(610,232)"/>
<path d="M0 0 C9.6256048 7.04673116 17.87439223 16.53586479 20.4765625 28.42578125 C21.42844407 42.02408945 20.26130091 53.31567091 11.4765625 64.42578125 C7.27436714 69.19669478 3.13946062 72.53654752 -2.5234375 75.42578125 C-1.83321326 81.29731681 -0.94150633 87.10564284 0.0703125 92.9296875 C0.22189819 93.81180405 0.37348389 94.69392059 0.52966309 95.60276794 C1.01025151 98.39823699 1.49322654 101.19328605 1.9765625 103.98828125 C2.45960639 106.78689569 2.94210699 109.58560078 3.42346191 112.38450623 C3.72180987 114.1187875 4.02115077 115.85289835 4.32165527 117.58680725 C8.67798709 142.87953255 8.67798709 142.87953255 1.4765625 153.42578125 C-3.12387223 159.50909722 -8.36777585 162.09894022 -15.5234375 164.42578125 C-16.5134375 164.75578125 -17.5034375 165.08578125 -18.5234375 165.42578125 C-28.17235604 166.4051224 -35.6767111 164.11874809 -43.7734375 158.92578125 C-49.66459851 154.11227165 -53.08619129 147.54086764 -53.88842773 139.99072266 C-53.90687098 128.7698521 -52.19835685 118.17475303 -50.0859375 107.17578125 C-49.43350347 103.71367679 -48.78959385 100.2500867 -48.15234375 96.78515625 C-47.92558456 95.55798889 -47.92558456 95.55798889 -47.69424438 94.30603027 C-46.56447971 88.03578447 -45.8318626 81.79399463 -45.5234375 75.42578125 C-46.3690625 74.88953125 -47.2146875 74.35328125 -48.0859375 73.80078125 C-57.86114334 67.17664177 -64.30354357 58.96243826 -67.5234375 47.42578125 C-67.96472717 44.3503317 -68.04850718 41.34247861 -68.0234375 38.23828125 C-68.01771729 37.40893066 -68.01199707 36.57958008 -68.00610352 35.72509766 C-67.68077617 24.4098401 -63.60494784 14.44652836 -55.5234375 6.42578125 C-39.06505023 -7.53891098 -19.0733705 -11.89871256 0 0 Z " fill="#299277" transform="translate(535.5234375,560.57421875)"/>
<path d="M0 0 C1.52863704 -0.0053183 3.05727461 -0.010486 4.5859127 -0.01549149 C5.64282878 -0.02222348 5.64282878 -0.02222348 6.72109669 -0.02909148 C18.75676532 -0.05612031 18.75676532 -0.05612031 23.22475243 3.46873093 C26.88327442 7.2900443 28.48931465 10.61418411 28.39272118 16.02341843 C26.79497174 21.26048602 24.99055909 24.07468015 20.39272118 27.02341843 C16.98590851 27.52398968 16.98590851 27.52398968 13.00505638 27.52462387 C11.9034975 27.53292547 11.9034975 27.53292547 10.7796849 27.54139477 C8.32369055 27.55498686 5.86871502 27.54004058 3.41274071 27.52512741 C1.64997997 27.52891119 -0.11277779 27.53441172 -1.87552834 27.54150009 C-6.66079996 27.55546632 -11.44571248 27.5442758 -16.23096418 27.52778888 C-21.24053002 27.51393798 -26.25007502 27.52039867 -31.25965309 27.52392197 C-39.67457806 27.52662455 -48.08936044 27.51314599 -56.50425148 27.48997116 C-66.22738142 27.46337842 -75.95027268 27.46160867 -85.67342651 27.47335953 C-95.03067184 27.48414775 -104.387831 27.4779409 -113.7450695 27.46380424 C-117.72497665 27.45805178 -121.70482057 27.45812137 -125.68472862 27.46286964 C-130.37483313 27.46765011 -135.06467714 27.45749341 -139.75473213 27.43591499 C-141.47399835 27.43036089 -143.19328968 27.42986917 -144.9125576 27.43486786 C-147.26387424 27.44084565 -149.61440111 27.42826845 -151.96564674 27.41109848 C-153.280082 27.40866858 -154.59451725 27.40623869 -155.94878387 27.40373516 C-161.35721861 26.84150444 -165.25653502 25.4780656 -169.04477882 21.39841843 C-171.0355405 17.09837321 -171.58227092 13.68171398 -170.60727882 9.02341843 C-168.54769053 5.18916511 -165.66442302 2.58756824 -161.60727882 1.02341843 C-158.71064663 0.7617054 -158.71064663 0.7617054 -155.28032875 0.74494553 C-153.32739906 0.7282003 -153.32739906 0.7282003 -151.33501625 0.71111679 C-149.89362555 0.70875166 -148.45223452 0.70657604 -147.01084328 0.70457077 C-145.4910523 0.69527037 -143.97126642 0.68510152 -142.45148659 0.67412949 C-138.32055931 0.64678741 -134.18966627 0.63166087 -130.05867219 0.61870146 C-125.72239261 0.60304339 -121.38618192 0.57624798 -117.04995155 0.55067062 C-108.81844286 0.50382552 -100.5869209 0.46712988 -92.35534686 0.43399775 C-83.05481399 0.39604718 -73.75435495 0.34645531 -64.45388281 0.29601359 C-50.68994138 0.22173311 -36.92597891 0.15212771 -23.16196251 0.09323311 C-21.68393402 0.08689786 -20.20590601 0.08045233 -18.72787857 0.07387733 C-14.7091699 0.05612962 -10.69046978 0.0415641 -6.671736 0.0303607 C-4.44780652 0.02288216 -2.22391302 0.01132048 0 0 Z " fill="#299579" transform="translate(780.6072788238525,679.9765815734863)"/>
<path d="M0 0 C1.08908494 -0.00573832 1.08908494 -0.00573832 2.20017159 -0.01159257 C4.63369425 -0.02191343 7.06698057 -0.01793218 9.5005188 -0.01396179 C11.2450482 -0.01830881 12.98957569 -0.02349192 14.73410034 -0.02944946 C19.47380608 -0.04285265 24.21343214 -0.04341661 28.95315313 -0.04088616 C32.90943741 -0.03981723 36.86570551 -0.04469789 40.82198632 -0.04949158 C50.15592348 -0.06059159 59.48982041 -0.06102157 68.82376099 -0.05497742 C78.45314924 -0.04893781 88.08239136 -0.0612472 97.71175468 -0.08254749 C105.97853683 -0.10016141 114.24527246 -0.10616513 122.51207268 -0.10290974 C127.44968711 -0.10109623 132.38719733 -0.10373981 137.32479477 -0.11762428 C141.96889322 -0.13019439 146.6127639 -0.12826625 151.25685883 -0.11521339 C152.96042838 -0.11284619 154.66401393 -0.11558747 156.36756516 -0.12383652 C158.69517759 -0.13429382 161.02202436 -0.12621199 163.34960938 -0.11352539 C164.65151655 -0.11369313 165.95342373 -0.11386087 167.29478264 -0.1140337 C172.30160862 0.42095501 175.5685914 2.02749948 179.11428833 5.57319641 C181.09351242 8.72529403 181.72867988 10.53216542 181.80178833 14.26069641 C180.9385822 17.98238843 179.94930712 21.12294664 177.19828606 23.85054779 C173.9536599 25.75975265 171.03432089 25.68294425 167.37579346 25.65510559 C166.62523552 25.66119669 165.87467758 25.6672878 165.10137546 25.67356348 C162.58485564 25.69022053 160.0688403 25.68541391 157.55227661 25.68061829 C155.74863152 25.6879571 153.94499114 25.69654278 152.14135742 25.70628357 C147.2404798 25.72852908 142.33977016 25.7314287 137.43884897 25.72953606 C133.34834829 25.72941649 129.25788336 25.73797522 125.16739261 25.74631357 C115.51701725 25.76555891 105.8667284 25.76842748 96.21633911 25.76167297 C86.25966989 25.75503232 76.30337115 25.77789499 66.34677708 25.81498671 C57.79973021 25.84567246 49.25280257 25.85704492 40.70570171 25.85314989 C35.60034017 25.85108108 30.49526683 25.85658185 25.38995743 25.88104248 C20.58814713 25.90328822 15.78693942 25.9014499 10.9851265 25.88111496 C9.22350091 25.87770096 7.46183493 25.8828108 5.70026398 25.89709854 C3.29338939 25.91527198 0.88856321 25.90255858 -1.51824951 25.88215637 C-2.21397847 25.89467422 -2.90970743 25.90719207 -3.62651908 25.92008924 C-9.1620108 25.81961889 -11.43678465 24.02744898 -15.19821167 20.26069641 C-17.06279366 16.53153244 -16.75869453 12.32108337 -16.19821167 8.26069641 C-12.62958555 1.2376402 -7.33301229 0.01156952 0 0 Z " fill="#29937A" transform="translate(627.1982116699219,582.7393035888672)"/>
<path d="M0 0 C1.2819223 -0.00379669 2.5638446 -0.00759338 3.88461304 -0.01150513 C7.38873819 -0.02116953 10.89235106 -0.00593349 14.39641428 0.01440096 C18.06740104 0.03201166 21.73837292 0.02844614 25.40939331 0.02767944 C31.57119281 0.02955022 37.73279484 0.04688604 43.89453125 0.07421875 C51.01667813 0.10569512 58.13860909 0.11621385 65.26082051 0.11474764 C72.84898097 0.11339654 80.43705831 0.12727687 88.02519369 0.14564085 C90.21004776 0.14990156 92.3948884 0.15132293 94.57974625 0.15211868 C98.64962191 0.15450171 102.71924238 0.17392834 106.7890625 0.1953125 C107.99955261 0.19440613 109.21004272 0.19349976 110.45721436 0.19256592 C112.1184584 0.20536087 112.1184584 0.20536087 113.81326294 0.21841431 C114.77519625 0.221766 115.73712955 0.22511768 116.72821236 0.22857094 C119.35939865 0.49539892 121.00627041 1.14722249 123.26513672 2.48583984 C123.26513672 3.14583984 123.26513672 3.80583984 123.26513672 4.48583984 C123.92513672 4.48583984 124.58513672 4.48583984 125.26513672 4.48583984 C128.13918155 9.68122857 128.59767446 12.72502907 127.00341797 18.46630859 C126.10830382 20.91484836 125.15321024 22.67328926 123.26513672 24.48583984 C120.17051923 25.51737901 118.01967399 25.6215438 114.77493286 25.63973999 C113.63370972 25.64834045 112.49248657 25.65694092 111.31668091 25.665802 C110.06362152 25.67006195 108.81056213 25.6743219 107.51953125 25.67871094 C106.20063904 25.68688843 104.88174683 25.69506592 103.52288818 25.70349121 C99.14792925 25.72968162 94.77296086 25.7450132 90.39794922 25.75927734 C88.89144764 25.76463775 87.38494613 25.77001526 85.87844467 25.7754097 C79.61270794 25.79703168 73.34697376 25.81576922 67.08120918 25.82703209 C58.10226921 25.84327879 49.12376141 25.87648128 40.14498436 25.93343294 C33.83067285 25.97211929 27.51647702 25.99166304 21.20205009 25.99695265 C17.43074912 26.00060721 13.65990942 26.01263895 9.88873672 26.04505539 C6.34107467 26.07511475 2.79415351 26.08145622 -0.7536087 26.06967163 C-2.67425975 26.06934548 -4.59486492 26.09382415 -6.51535034 26.11904907 C-15.90517129 26.05094236 -15.90517129 26.05094236 -18.96560669 23.07046509 C-21.99682083 18.64230435 -23.39743386 16.00726132 -22.73486328 10.48583984 C-17.35926915 0.14815882 -10.67998347 -0.09949298 0 0 Z " fill="#299579" transform="translate(632.73486328125,631.51416015625)"/>
<path d="M0 0 C4.13501628 2.37543488 5.51708138 4.57033751 7 9 C7.2759478 10.92903132 7.48449903 12.8689032 7.625 14.8125 C7.69976563 15.78832031 7.77453125 16.76414062 7.8515625 17.76953125 C7.90054688 18.50558594 7.94953125 19.24164063 8 20 C9.53720703 20.05607422 9.53720703 20.05607422 11.10546875 20.11328125 C12.46618062 20.17897079 13.82685611 20.24541709 15.1875 20.3125 C15.86103516 20.33505859 16.53457031 20.35761719 17.22851562 20.38085938 C21.62717348 20.61688492 24.43273032 21.42473349 28 24 C28.5775 24.391875 29.155 24.78375 29.75 25.1875 C31.83978787 28.21769242 32.22333657 31.41347749 32 35 C30.85798598 38.29772589 29.25926524 41.06401801 26.40234375 43.1875 C22.71119999 44.43588683 19.11523771 44.20833017 15.25 44.125 C14.45722656 44.11597656 13.66445313 44.10695313 12.84765625 44.09765625 C10.89830719 44.07417012 8.94911425 44.03830137 7 44 C7.02320313 44.6290625 7.04640625 45.258125 7.0703125 45.90625 C7.34927044 59.13682665 7.34927044 59.13682665 3 64.4375 C-0.2587826 66.98342391 -2.73013156 67.39339589 -6.89453125 67.35546875 C-10.65569115 66.72046773 -12.40291048 64.72377681 -15 62 C-16.2062252 58.38132441 -16.10816918 55.07493749 -16.0625 51.3125 C-16.05798828 50.61060547 -16.05347656 49.90871094 -16.04882812 49.18554688 C-16.03706927 47.45699462 -16.01913454 45.72848635 -16 44 C-17.73636719 44.06960938 -17.73636719 44.06960938 -19.5078125 44.140625 C-21.04684906 44.17816248 -22.5859137 44.21456051 -24.125 44.25 C-24.88554688 44.28351563 -25.64609375 44.31703125 -26.4296875 44.3515625 C-31.77980463 44.4438059 -34.76354061 43.5696093 -39 40 C-41.10524212 36.3636727 -41.66330626 33.14566415 -41 29 C-38.54812778 25.23324362 -36.31436955 22.43812318 -32 21 C-29.26134713 20.92948886 -26.54972412 20.90642235 -23.8125 20.9375 C-23.06291016 20.94201172 -22.31332031 20.94652344 -21.54101562 20.95117188 C-19.69397617 20.96293646 -17.84697787 20.98087135 -16 21 C-16.03480469 20.13117188 -16.06960938 19.26234375 -16.10546875 18.3671875 C-16.38486574 6.47285831 -16.38486574 6.47285831 -13 2 C-8.80981581 -0.56414256 -4.78710417 -0.69242043 0 0 Z " fill="#339679" transform="translate(773,358)"/>
<path d="M0 0 C3.30038636 1.82574564 4.60334428 3.22557692 6.3125 6.5625 C7.27793454 11.38967271 7.15710418 16.09485853 7 21 C8.62808594 20.93039062 8.62808594 20.93039062 10.2890625 20.859375 C11.73434731 20.82183513 13.17966211 20.78543736 14.625 20.75 C15.33785156 20.71648437 16.05070312 20.68296875 16.78515625 20.6484375 C21.99575494 20.55283018 24.87712524 21.54469716 29 25 C31.10144908 28.24769404 32.20982189 30.44317339 31.68359375 34.34765625 C30.64566571 37.99523192 29.9037757 40.24940662 26.92578125 42.72265625 C22.99020765 44.44085727 19.44029239 44.56273241 15.1875 44.6875 C14.00510742 44.73874023 14.00510742 44.73874023 12.79882812 44.79101562 C10.86636881 44.87299875 8.93320965 44.93818845 7 45 C6.96132813 46.64548828 6.96132813 46.64548828 6.921875 48.32421875 C6.8655731 49.77868448 6.80822623 51.23311003 6.75 52.6875 C6.73582031 53.40873047 6.72164063 54.12996094 6.70703125 54.87304688 C6.48290999 59.7813024 5.64253712 62.41908475 2 66 C-1.46527824 67.73263912 -5.21107028 67.4719774 -9 67 C-13.11104427 64.63833627 -14.60880539 62.45182276 -16 58 C-16.1953125 54.44921875 -16.1953125 54.44921875 -16.125 50.6875 C-16.10695312 49.43324219 -16.08890625 48.17898438 -16.0703125 46.88671875 C-16.04710937 45.93410156 -16.02390625 44.98148437 -16 44 C-17.08539063 44.04640625 -18.17078125 44.0928125 -19.2890625 44.140625 C-20.73434731 44.17816487 -22.17966211 44.21456264 -23.625 44.25 C-24.33785156 44.28351563 -25.05070313 44.31703125 -25.78515625 44.3515625 C-31.00305653 44.44730379 -33.83688689 43.40791424 -38 40 C-40.58644464 36.5905957 -40.36503115 33.1613551 -40 29 C-38.613614 25.61105644 -37.49008063 24.30411253 -34.375 22.37109375 C-30.50346713 20.79828352 -27.22296103 20.65763519 -23.125 20.8125 C-22.43664062 20.82603516 -21.74828125 20.83957031 -21.0390625 20.85351562 C-19.35902999 20.8885163 -17.6794065 20.94231046 -16 21 C-16.04640625 20.13117188 -16.0928125 19.26234375 -16.140625 18.3671875 C-16.4722547 7.77872482 -16.4722547 7.77872482 -14.1875 4.3125 C-9.75863206 -0.36944611 -6.15982059 -0.86605562 0 0 Z " fill="#319378" transform="translate(259,358)"/>
<path d="M0 0 C0.97751724 -0.00761353 1.95503448 -0.01522705 2.96217346 -0.02307129 C5.02561901 -0.03385705 7.08911908 -0.0367316 9.15258789 -0.03222656 C12.30252454 -0.03125428 15.45002422 -0.072893 18.59960938 -0.1171875 C20.60806785 -0.12239489 22.61653477 -0.12508269 24.625 -0.125 C25.56266708 -0.14139526 26.50033417 -0.15779053 27.46641541 -0.17468262 C31.89726175 -0.12805939 34.92192098 0.02505539 38.43383789 2.88867188 C41.80078999 6.44153756 42.74709602 8.0188375 43.19140625 12.90625 C42.74250054 18.02377504 41.15309191 20.32198291 37.37890625 23.71875 C34.15122629 25.97812597 31.70195079 26.59270034 27.85400391 26.62988281 C27.04951813 26.63949036 26.24503235 26.6490979 25.41616821 26.65899658 C24.55051239 26.66324646 23.68485657 26.66749634 22.79296875 26.671875 C21.4520668 26.68042511 21.4520668 26.68042511 20.08407593 26.68914795 C18.19278139 26.69859256 16.30147044 26.70512979 14.41015625 26.70898438 C11.5218425 26.71868973 8.63424051 26.74971786 5.74609375 26.78125 C3.9075563 26.78778036 2.06901377 26.7930307 0.23046875 26.796875 C-0.63113861 26.8092218 -1.49274597 26.8215686 -2.38046265 26.83428955 C-8.54084087 26.81148722 -11.77420536 25.56192073 -16.43359375 21.40625 C-18.89594134 17.11994123 -18.77390535 13.30114804 -18.12109375 8.46875 C-14.74356087 0.11380025 -7.94459776 0.00170287 0 0 Z " fill="#34967D" transform="translate(805.12109375,631.53125)"/>
<path d="M0 0 C6.63872514 -0.15875212 11.8081342 -0.01015709 17.71875 3.1640625 C20.91976165 6.52922859 22.61808989 8.83031605 22.96875 13.4765625 C22.61345315 18.71719105 21.05658579 20.98937741 17.15625 24.4140625 C12.91745275 27.45730155 9.53747591 27.35536931 4.45703125 27.40234375 C3.2210041 27.41445137 3.2210041 27.41445137 1.96000671 27.42680359 C0.21237289 27.44064773 -1.53528801 27.45136841 -3.28295898 27.45922852 C-5.9411239 27.4763842 -8.5980263 27.52025878 -11.25585938 27.56445312 C-12.95572004 27.57458536 -14.65559127 27.5830998 -16.35546875 27.58984375 C-17.14426926 27.60735184 -17.93306976 27.62485992 -18.74577332 27.64289856 C-24.38034172 27.62103041 -27.6643848 26.44029853 -32.28125 23.1640625 C-34.60366005 19.39014617 -35.54066183 16.41376172 -35.21875 12.0390625 C-34.23034334 7.95364832 -33.26992941 6.06735107 -30.28125 3.1640625 C-27.31648542 1.38268924 -25.00880771 0.88311625 -21.5703125 0.75 C-20.20737061 0.69150879 -20.20737061 0.69150879 -18.81689453 0.63183594 C-17.85638184 0.6012207 -16.89586914 0.57060547 -15.90625 0.5390625 C-14.42874268 0.48540527 -14.42874268 0.48540527 -12.92138672 0.43066406 C-10.94906751 0.36288677 -8.97656255 0.30029492 -7.00390625 0.24316406 C-4.66849828 0.17531326 -2.33463586 0.08953215 0 0 Z " fill="#34957D" transform="translate(210.28125,630.8359375)"/>
<path d="M0 0 C0.33 0 0.66 0 1 0 C2.97032415 14.09084943 3.24967579 27.93667295 3.16015625 42.1484375 C3.15386928 44.42241152 3.14863473 46.69638867 3.14439392 48.97036743 C3.13122091 54.89686312 3.10683311 60.82325162 3.07904053 66.74969482 C3.03554931 76.28197563 3.00620396 85.8142883 2.9829998 95.34663773 C2.97279448 98.66597603 2.95575801 101.98522951 2.93800354 105.30453491 C2.93117909 107.3285108 2.92457028 109.35248743 2.91821289 111.37646484 C2.91147552 112.296931 2.90473816 113.21739716 2.89779663 114.16575623 C2.89628098 115.01189987 2.89476532 115.85804352 2.89320374 116.72982788 C2.88792459 117.82856515 2.88792459 117.82856515 2.8825388 118.94949913 C3.00442169 121.07718871 3.41766215 122.95417312 4 125 C5.65 125.33 7.3 125.66 9 126 C7.25 127.125 7.25 127.125 5 128 C3.68 127.34 2.36 126.68 1 126 C0.67 84.42 0.34 42.84 0 0 Z " fill="#81BEAB" transform="translate(660,320)"/>
<path d="M0 0 C3.63 0 7.26 0 11 0 C11.0268245 4.14587582 11.04675315 8.29158038 11.0625 12.4375 C11.07087891 13.62150391 11.07925781 14.80550781 11.08789062 16.02539062 C11.09111328 17.15009766 11.09433594 18.27480469 11.09765625 19.43359375 C11.10289307 20.47572021 11.10812988 21.51784668 11.11352539 22.59155273 C11 25 11 25 10 26 C8.31198015 26.09353163 6.62004793 26.11744791 4.92944336 26.11352539 C3.84839828 26.11344986 2.76735321 26.11337433 1.65354919 26.11329651 C-0.110485 26.10555458 -0.110485 26.10555458 -1.91015625 26.09765625 C-3.10732773 26.0962413 -4.30449921 26.09482635 -5.53794861 26.09336853 C-9.37949066 26.08774979 -13.22097543 26.07519411 -17.0625 26.0625 C-19.65950437 26.05748741 -22.25650965 26.05292409 -24.85351562 26.04882812 C-31.23569679 26.03777427 -37.6178443 26.02101792 -44 26 C-44 25.34 -44 24.68 -44 24 C-17.27 23.505 -17.27 23.505 10 23 C10 15.74 10 8.48 10 1 C6.7 1 3.4 1 0 1 C0 0.67 0 0.34 0 0 Z " fill="#59A08D" transform="translate(268,657)"/>
<path d="M0 0 C0.33 0 0.66 0 1 0 C1.042721 1.66611905 1.04063832 3.33382885 1 5 C-0.65986946 6.65986946 -2.67163256 6.16768834 -4.953125 6.2109375 C-5.96503906 6.23929688 -6.97695313 6.26765625 -8.01953125 6.296875 C-10.1573853 6.34857643 -12.29543006 6.39295831 -14.43359375 6.4296875 C-15.45066406 6.460625 -16.46773438 6.4915625 -17.515625 6.5234375 C-18.91216309 6.5531665 -18.91216309 6.5531665 -20.33691406 6.58349609 C-24.44009466 7.22522933 -27.10063189 9.10063189 -30 12 C-30.99 12 -31.98 12 -33 12 C-31.70989008 9.12206249 -30.42638194 7.03816083 -28 5 C-24.82212459 3.9407082 -22.57411057 3.88541061 -19.23828125 3.90234375 C-18.12001953 3.90556641 -17.00175781 3.90878906 -15.84960938 3.91210938 C-14.68236328 3.92048828 -13.51511719 3.92886719 -12.3125 3.9375 C-11.13365234 3.94201172 -9.95480469 3.94652344 -8.74023438 3.95117188 C-5.82677211 3.96296727 -2.91341137 3.9794273 0 4 C0 2.68 0 1.36 0 0 Z " fill="#70B09E" transform="translate(278,530)"/>
<path d="M0 0 C1.21171875 0.00322266 2.4234375 0.00644531 3.671875 0.00976562 C4.94289063 0.01814453 6.21390625 0.02652344 7.5234375 0.03515625 C8.8021875 0.03966797 10.0809375 0.04417969 11.3984375 0.04882812 C14.56515042 0.06064422 17.73177106 0.0771181 20.8984375 0.09765625 C17.54724231 2.33178638 16.480662 2.33613387 12.57421875 2.29296875 C11.03217773 2.28330078 11.03217773 2.28330078 9.45898438 2.2734375 C8.38712891 2.25667969 7.31527344 2.23992188 6.2109375 2.22265625 C5.12748047 2.21363281 4.04402344 2.20460938 2.92773438 2.1953125 C0.25120802 2.17173077 -2.42520491 2.13585961 -5.1015625 2.09765625 C-8.0715625 9.02765625 -8.0715625 9.02765625 -11.1015625 16.09765625 C-12.06853751 12.22975622 -12.0811575 11.01603623 -11.1640625 7.34765625 C-10.87208984 6.14882813 -10.87208984 6.14882813 -10.57421875 4.92578125 C-10.41824219 4.3225 -10.26226563 3.71921875 -10.1015625 3.09765625 C-9.4415625 3.09765625 -8.7815625 3.09765625 -8.1015625 3.09765625 C-8.1015625 2.43765625 -8.1015625 1.77765625 -8.1015625 1.09765625 C-5.33538687 -0.28543156 -3.0913825 -0.01444571 0 0 Z " fill="#6EB29D" transform="translate(747.1015625,753.90234375)"/>
<path d="M0 0 C0.68835938 0.01353516 1.37671875 0.02707031 2.0859375 0.04101562 C3.76597001 0.0760163 5.4455935 0.12981046 7.125 0.1875 C7.125 0.5175 7.125 0.8475 7.125 1.1875 C2.505 1.1875 -2.115 1.1875 -6.875 1.1875 C-7.205 2.1775 -7.535 3.1675 -7.875 4.1875 C-8.514375 4.496875 -9.15375 4.80625 -9.8125 5.125 C-12.46046272 6.48910201 -12.89281305 7.39204483 -13.875 10.1875 C-14.26249213 12.51245277 -14.60482839 14.84601268 -14.875 17.1875 C-16.875 15.1875 -16.875 15.1875 -17.1875 11.875 C-16.85219179 7.91836316 -16.39761608 6.2146393 -13.875 3.1875 C-9.22498345 0.30199866 -5.35281109 -0.20228647 0 0 Z " fill="#6BB29C" transform="translate(235.875,378.8125)"/>
<path d="M0 0 C14.65358225 -0.41370328 28.55239911 0.51820353 43 3 C43 3.33 43 3.66 43 4 C39.20802551 3.86155153 35.4165141 3.71299256 31.625 3.5625 C30.54476562 3.52318359 29.46453125 3.48386719 28.3515625 3.44335938 C27.3203125 3.40146484 26.2890625 3.35957031 25.2265625 3.31640625 C24.27346191 3.27974854 23.32036133 3.24309082 22.33837891 3.20532227 C20 3 20 3 18 2 C16.6265365 1.84995027 15.2471474 1.75161994 13.8671875 1.68359375 C13.06152344 1.64169922 12.25585938 1.59980469 11.42578125 1.55664062 C10.58402344 1.51732422 9.74226563 1.47800781 8.875 1.4375 C8.02550781 1.39431641 7.17601562 1.35113281 6.30078125 1.30664062 C4.20071777 1.20045764 2.10038052 1.09971503 0 1 C0 0.67 0 0.34 0 0 Z " fill="#82C3B2" transform="translate(500,196)"/>
<path d="M0 0 C0.33 1.32 0.66 2.64 1 4 C2.01368652 3.98428955 2.01368652 3.98428955 3.04785156 3.96826172 C6.11519642 3.92664024 9.18248178 3.90065427 12.25 3.875 C13.84521484 3.84986328 13.84521484 3.84986328 15.47265625 3.82421875 C16.49746094 3.81777344 17.52226563 3.81132813 18.578125 3.8046875 C19.52075195 3.79421387 20.46337891 3.78374023 21.43457031 3.77294922 C24.09951941 4.00880787 25.71863092 4.64338341 28 6 C24.95879308 7.77504706 22.95325346 8.21305767 19.453125 7.9765625 C18.18662109 7.89921875 18.18662109 7.89921875 16.89453125 7.8203125 C16.02183594 7.75585938 15.14914062 7.69140625 14.25 7.625 C13.36183594 7.56828125 12.47367188 7.5115625 11.55859375 7.453125 C9.37153668 7.31202454 7.1856931 7.1606567 5 7 C5 6.67 5 6.34 5 6 C3.35 5.67 1.7 5.34 0 5 C0 3.35 0 1.7 0 0 Z " fill="#73BDA8" transform="translate(744,530)"/>
<path d="M0 0 C0 0.33 0 0.66 0 1 C-0.74572266 1.08564209 -1.49144531 1.17128418 -2.25976562 1.25952148 C-5.67322416 1.65177258 -9.08661247 2.04463152 -12.5 2.4375 C-13.67304688 2.57220703 -14.84609375 2.70691406 -16.0546875 2.84570312 C-22.04038435 3.53506709 -28.02308712 4.23809155 -34 5 C-34 4.34 -34 3.68 -34 3 C-22.87378938 -0.94346705 -11.63909083 -0.3029395 0 0 Z " fill="#67B09C" transform="translate(516,243)"/>
<path d="M0 0 C2.58355457 1.90958381 3.03701613 3.1401325 3.875 6.3125 C4.01715143 10.50596716 3.24819541 12.50280714 1 16 C0.34 16.33 -0.32 16.66 -1 17 C-1 16.01 -1 15.02 -1 14 C-0.34 14 0.32 14 1 14 C1 10.37 1 6.74 1 3 C0.34 3 -0.32 3 -1 3 C-0.67 2.01 -0.34 1.02 0 0 Z " fill="#69AF9B" transform="translate(774,539)"/>
<path d="M0 0 C2.41754221 7.47075073 0.5343117 16.73497314 -2 24 C-2.33 24 -2.66 24 -3 24 C-3.15490223 18.26861756 -2.65244885 13.10650794 -1.5 7.5 C-1.35691406 6.77296875 -1.21382813 6.0459375 -1.06640625 5.296875 C-0.71766302 3.52990929 -0.35980277 1.76474691 0 0 Z " fill="#7BBFA9" transform="translate(365,310)"/>
<path d="M0 0 C0.66 0.33 1.32 0.66 2 1 C1.34 1.66 0.68 2.32 0 3 C-0.144375 3.639375 -0.28875 4.27875 -0.4375 4.9375 C-1 7 -1 7 -2.5625 8.375 C-4.33136725 10.03762133 -4.33136725 10.03762133 -4.1875 13.1875 C-4.125625 14.115625 -4.06375 15.04375 -4 16 C-4.66 15.34 -5.32 14.68 -6 14 C-5.89145441 7.48726471 -4.51257332 4.62828032 0 0 Z " fill="#6BAF9C" transform="translate(220,585)"/>
<path d="M0 0 C7.92 0 15.84 0 24 0 C23.34 1.32 22.68 2.64 22 4 C21.34 3.34 20.68 2.68 20 2 C17.87139338 1.63047951 17.87139338 1.63047951 15.4296875 1.5859375 C14.53378906 1.54726563 13.63789062 1.50859375 12.71484375 1.46875 C11.77769531 1.4378125 10.84054687 1.406875 9.875 1.375 C8.45767578 1.31699219 8.45767578 1.31699219 7.01171875 1.2578125 C4.67467625 1.16338654 2.33764499 1.07781606 0 1 C0 0.67 0 0.34 0 0 Z " fill="#9BF5D9" transform="translate(667,755)"/>
<path d="M0 0 C0.33 1.32 0.66 2.64 1 4 C0.071875 4.12375 0.071875 4.12375 -0.875 4.25 C-3.67505419 5.23825442 -3.74113932 6.40359985 -5 9 C-7.125 10.25 -7.125 10.25 -9 11 C-6.36113346 6.7973607 -3.63559661 3.43361902 0 0 Z " fill="#61AB95" transform="translate(404,241)"/>
<path d="M0 0 C0 0.66 0 1.32 0 2 C-4.95 4.475 -4.95 4.475 -10 7 C-10.66 6.34 -11.32 5.68 -12 5 C-10.37750059 4.16180842 -8.75191503 3.3295884 -7.125 2.5 C-6.22007812 2.0359375 -5.31515625 1.571875 -4.3828125 1.09375 C-2 0 -2 0 0 0 Z " fill="#55A28A" transform="translate(339,452)"/>
<path d="M0 0 C4.35522853 0.50642192 7.44239635 1.38411497 11 4 C11 4.66 11 5.32 11 6 C7.27566618 4.7874262 3.62197194 3.49140021 0 2 C0 1.34 0 0.68 0 0 Z " fill="#57A38B" transform="translate(549,250)"/>
<path d="M0 0 C0.33 0 0.66 0 1 0 C1.21192221 5.19209404 0.5912689 9.126739 -1 14 C-1.66 14 -2.32 14 -3 14 C-2.48594831 9.03083364 -1.76615118 4.70973649 0 0 Z " fill="#6AAB97" transform="translate(284,506)"/>
<path d="M0 0 C1.98 0 3.96 0 6 0 C4.00956313 1.32695791 2.00954842 2.63966665 0 3.9375 C-2.30885169 5.52483554 -4.14362806 6.93736451 -6 9 C-5.8125 6.625 -5.8125 6.625 -5 4 C-2.4375 2.6875 -2.4375 2.6875 0 2 C0 1.34 0 0.68 0 0 Z " fill="#BDF4E1" transform="translate(661,609)"/>
<path d="M0 0 C0.66 0.33 1.32 0.66 2 1 C0.84826645 3.46800047 -0.04783565 5.04783565 -2 7 C-2.99 7 -3.98 7 -5 7 C-3.70700306 4.11562221 -2.34058637 2.12780579 0 0 Z " fill="#539F86" transform="translate(250,535)"/>
<path d="M0 0 C1.32 0.66 2.64 1.32 4 2 C2.35 2.33 0.7 2.66 -1 3 C-1.33 3.99 -1.66 4.98 -2 6 C-3.65 6.33 -5.3 6.66 -7 7 C-4.66666667 4.66666667 -2.33333333 2.33333333 0 0 Z " fill="#60AF9B" transform="translate(423,224)"/>
<path d="M0 0 C0.33 0 0.66 0 1 0 C1.36552803 1.41377782 1.71695495 2.83120576 2.0625 4.25 C2.25972656 5.03890625 2.45695313 5.8278125 2.66015625 6.640625 C3.01497267 9.10394822 2.76877544 10.65604132 2 13 C-0.20914 9.68629 -0.22481553 8.6553979 -0.125 4.8125 C-0.10695313 3.91144531 -0.08890625 3.01039063 -0.0703125 2.08203125 C-0.04710937 1.39496094 -0.02390625 0.70789063 0 0 Z " fill="#6AB19A" transform="translate(741,514)"/>
<path d="M0 0 C0 0.66 0 1.32 0 2 C-1.62626404 3.38232443 -3.2925002 4.71937515 -5 6 C-6.32 5.34 -7.64 4.68 -9 4 C-2.25 0 -2.25 0 0 0 Z " fill="#59A690" transform="translate(442,214)"/>
<path d="M0 0 C0.66 0.33 1.32 0.66 2 1 C-0.475 4.465 -0.475 4.465 -3 8 C-3.66 7.67 -4.32 7.34 -5 7 C-3.70700306 4.11562221 -2.34058637 2.12780579 0 0 Z " fill="#5AA58E" transform="translate(265,633)"/>
<path d="M0 0 C0.99 0.33 1.98 0.66 3 1 C3 1.66 3 2.32 3 3 C4.32 3.33 5.64 3.66 7 4 C7 4.99 7 5.98 7 7 C4.08482708 5.92598892 2.22189824 5.22189824 0 3 C0 2.01 0 1.02 0 0 Z " fill="#64AF9C" transform="translate(216,601)"/>
<path d="M0 0 C1.21236328 0.04060547 1.21236328 0.04060547 2.44921875 0.08203125 C3.06410156 0.11683594 3.67898438 0.15164063 4.3125 0.1875 C4.3125 0.5175 4.3125 0.8475 4.3125 1.1875 C2.7346875 1.4040625 2.7346875 1.4040625 1.125 1.625 C-1.84210549 2.06276966 -4.75544366 2.56554866 -7.6875 3.1875 C-5.26849268 0.20484049 -3.789448 -0.16475861 0 0 Z " fill="#6EAD99" transform="translate(254.6875,357.8125)"/>
<path d="M0 0 C0.66 0 1.32 0 2 0 C1.01 2.97 0.02 5.94 -1 9 C-1.33 9 -1.66 9 -2 9 C-2 6.69 -2 4.38 -2 2 C-1.34 2 -0.68 2 0 2 C0 1.34 0 0.68 0 0 Z " fill="#64B099" transform="translate(419,299)"/>
</svg>
